<svg width="140" height="40" viewBox="0 0 140 40" fill="none" xmlns="http://www.w3.org/2000/svg">
<path d="M51.462 26.1415C49.734 26.1415 48.384 25.7215 47.412 24.8815C46.44 24.0295 45.924 22.8235 45.864 21.2635C45.852 20.9155 45.846 20.3635 45.846 19.6075C45.846 18.8515 45.852 18.2995 45.864 17.9515C45.924 16.4275 46.446 15.2515 47.43 14.4235C48.426 13.5955 49.77 13.1815 51.462 13.1815C52.602 13.1815 53.592 13.3675 54.432 13.7395C55.284 14.1115 55.932 14.5855 56.376 15.1615C56.832 15.7375 57.072 16.3315 57.096 16.9435C57.096 17.0515 57.054 17.1415 56.97 17.2135C56.898 17.2855 56.808 17.3215 56.7 17.3215H54.072C53.952 17.3215 53.856 17.3035 53.784 17.2675C53.712 17.2315 53.652 17.1655 53.604 17.0695C53.448 16.7215 53.202 16.4215 52.866 16.1695C52.53 15.9055 52.062 15.7735 51.462 15.7735C50.034 15.7735 49.284 16.5295 49.212 18.0415C49.2 18.3775 49.194 18.8995 49.194 19.6075C49.194 20.3035 49.2 20.8255 49.212 21.1735C49.284 22.7575 50.052 23.5495 51.516 23.5495C52.224 23.5495 52.788 23.3695 53.208 23.0095C53.64 22.6375 53.856 22.0735 53.856 21.3175V20.9755H52.164C52.032 20.9755 51.924 20.9335 51.84 20.8495C51.756 20.7535 51.714 20.6395 51.714 20.5075V19.1755C51.714 19.0435 51.756 18.9355 51.84 18.8515C51.924 18.7555 52.032 18.7075 52.164 18.7075H56.7C56.832 18.7075 56.94 18.7555 57.024 18.8515C57.108 18.9355 57.15 19.0435 57.15 19.1755V21.2275C57.15 22.2475 56.916 23.1295 56.448 23.8735C55.98 24.6055 55.314 25.1695 54.45 25.5655C53.598 25.9495 52.602 26.1415 51.462 26.1415ZM63.4451 26.1415C61.9571 26.1415 60.8111 25.7875 60.0071 25.0795C59.2031 24.3715 58.7651 23.3755 58.6931 22.0915C58.6811 21.9355 58.6751 21.6655 58.6751 21.2815C58.6751 20.8975 58.6811 20.6275 58.6931 20.4715C58.7651 19.1995 59.2151 18.2095 60.0431 17.5015C60.8711 16.7815 62.0051 16.4215 63.4451 16.4215C64.8971 16.4215 66.0371 16.7815 66.8651 17.5015C67.6931 18.2095 68.1431 19.1995 68.2151 20.4715C68.2271 20.6275 68.2331 20.8975 68.2331 21.2815C68.2331 21.6655 68.2271 21.9355 68.2151 22.0915C68.1431 23.3755 67.7051 24.3715 66.9011 25.0795C66.0971 25.7875 64.9451 26.1415 63.4451 26.1415ZM63.4451 23.9455C63.9731 23.9455 64.3631 23.7895 64.6151 23.4775C64.8671 23.1535 65.0111 22.6615 65.0471 22.0015C65.0591 21.8815 65.0651 21.6415 65.0651 21.2815C65.0651 20.9215 65.0591 20.6815 65.0471 20.5615C65.0111 19.9135 64.8611 19.4275 64.5971 19.1035C64.3451 18.7795 63.9611 18.6175 63.4451 18.6175C62.4491 18.6175 61.9211 19.2655 61.8611 20.5615L61.8431 21.2815L61.8611 22.0015C61.8851 22.6615 62.0231 23.1535 62.2751 23.4775C62.5391 23.7895 62.9291 23.9455 63.4451 23.9455Z" fill="black"/>
<path d="M75.385 26.1415C73.669 26.1415 72.325 25.7275 71.353 24.8995C70.393 24.0595 69.883 22.8475 69.823 21.2635C69.811 20.9395 69.805 20.4115 69.805 19.6795C69.805 18.9355 69.811 18.3955 69.823 18.0595C69.883 16.4995 70.405 15.2995 71.389 14.4595C72.373 13.6075 73.705 13.1815 75.385 13.1815C76.441 13.1815 77.389 13.3615 78.229 13.7215C79.069 14.0695 79.729 14.5735 80.209 15.2335C80.701 15.8815 80.953 16.6435 80.965 17.5195V17.5555C80.965 17.6515 80.923 17.7355 80.839 17.8075C80.767 17.8675 80.683 17.8975 80.587 17.8975H78.157C78.001 17.8975 77.881 17.8675 77.797 17.8075C77.713 17.7355 77.641 17.6095 77.581 17.4295C77.413 16.8175 77.149 16.3915 76.789 16.1515C76.429 15.8995 75.955 15.7735 75.367 15.7735C73.951 15.7735 73.219 16.5655 73.171 18.1495C73.159 18.4735 73.153 18.9715 73.153 19.6435C73.153 20.3155 73.159 20.8255 73.171 21.1735C73.219 22.7575 73.951 23.5495 75.367 23.5495C75.955 23.5495 76.435 23.4235 76.807 23.1715C77.179 22.9075 77.437 22.4815 77.581 21.8935C77.629 21.7135 77.695 21.5935 77.779 21.5335C77.863 21.4615 77.989 21.4255 78.157 21.4255H80.587C80.695 21.4255 80.785 21.4615 80.857 21.5335C80.941 21.6055 80.977 21.6955 80.965 21.8035C80.953 22.6795 80.701 23.4475 80.209 24.1075C79.729 24.7555 79.069 25.2595 78.229 25.6195C77.389 25.9675 76.441 26.1415 75.385 26.1415ZM87.0877 26.1415C85.5997 26.1415 84.4537 25.7875 83.6497 25.0795C82.8457 24.3715 82.4077 23.3755 82.3357 22.0915C82.3237 21.9355 82.3177 21.6655 82.3177 21.2815C82.3177 20.8975 82.3237 20.6275 82.3357 20.4715C82.4077 19.1995 82.8577 18.2095 83.6857 17.5015C84.5137 16.7815 85.6477 16.4215 87.0877 16.4215C88.5397 16.4215 89.6797 16.7815 90.5077 17.5015C91.3357 18.2095 91.7857 19.1995 91.8577 20.4715C91.8697 20.6275 91.8757 20.8975 91.8757 21.2815C91.8757 21.6655 91.8697 21.9355 91.8577 22.0915C91.7857 23.3755 91.3477 24.3715 90.5437 25.0795C89.7397 25.7875 88.5877 26.1415 87.0877 26.1415ZM87.0877 23.9455C87.6157 23.9455 88.0057 23.7895 88.2577 23.4775C88.5097 23.1535 88.6537 22.6615 88.6897 22.0015C88.7017 21.8815 88.7077 21.6415 88.7077 21.2815C88.7077 20.9215 88.7017 20.6815 88.6897 20.5615C88.6537 19.9135 88.5037 19.4275 88.2397 19.1035C87.9877 18.7795 87.6037 18.6175 87.0877 18.6175C86.0917 18.6175 85.5637 19.2655 85.5037 20.5615L85.4857 21.2815L85.5037 22.0015C85.5277 22.6615 85.6657 23.1535 85.9177 23.4775C86.1817 23.7895 86.5717 23.9455 87.0877 23.9455ZM94.1136 25.9615C93.9816 25.9615 93.8736 25.9195 93.7896 25.8355C93.7056 25.7515 93.6636 25.6435 93.6636 25.5115V17.0515C93.6636 16.9195 93.7056 16.8115 93.7896 16.7275C93.8736 16.6435 93.9816 16.6015 94.1136 16.6015H96.1836C96.3156 16.6015 96.4236 16.6495 96.5076 16.7455C96.6036 16.8295 96.6516 16.9315 96.6516 17.0515V17.7715C97.3116 16.9915 98.1996 16.6015 99.3156 16.6015H100.108C100.24 16.6015 100.348 16.6435 100.432 16.7275C100.516 16.8115 100.558 16.9195 100.558 17.0515V18.9055C100.558 19.0255 100.516 19.1335 100.432 19.2295C100.348 19.3135 100.24 19.3555 100.108 19.3555H98.3616C97.8696 19.3555 97.4856 19.4935 97.2096 19.7695C96.9456 20.0335 96.8136 20.4115 96.8136 20.9035V25.5115C96.8136 25.6435 96.7656 25.7515 96.6696 25.8355C96.5856 25.9195 96.4776 25.9615 96.3456 25.9615H94.1136ZM106.178 26.1415C104.69 26.1415 103.544 25.7875 102.74 25.0795C101.936 24.3715 101.498 23.3755 101.426 22.0915C101.414 21.9355 101.408 21.6655 101.408 21.2815C101.408 20.8975 101.414 20.6275 101.426 20.4715C101.498 19.1995 101.948 18.2095 102.776 17.5015C103.604 16.7815 104.738 16.4215 106.178 16.4215C107.63 16.4215 108.77 16.7815 109.598 17.5015C110.426 18.2095 110.876 19.1995 110.948 20.4715C110.96 20.6275 110.966 20.8975 110.966 21.2815C110.966 21.6655 110.96 21.9355 110.948 22.0915C110.876 23.3755 110.438 24.3715 109.634 25.0795C108.83 25.7875 107.678 26.1415 106.178 26.1415ZM106.178 23.9455C106.706 23.9455 107.096 23.7895 107.348 23.4775C107.6 23.1535 107.744 22.6615 107.78 22.0015C107.792 21.8815 107.798 21.6415 107.798 21.2815C107.798 20.9215 107.792 20.6815 107.78 20.5615C107.744 19.9135 107.594 19.4275 107.33 19.1035C107.078 18.7795 106.694 18.6175 106.178 18.6175C105.182 18.6175 104.654 19.2655 104.594 20.5615L104.576 21.2815L104.594 22.0015C104.618 22.6615 104.756 23.1535 105.008 23.4775C105.272 23.7895 105.662 23.9455 106.178 23.9455ZM113.203 25.9615C113.071 25.9615 112.963 25.9195 112.879 25.8355C112.795 25.7515 112.753 25.6435 112.753 25.5115V17.0515C112.753 16.9195 112.795 16.8115 112.879 16.7275C112.963 16.6435 113.071 16.6015 113.203 16.6015H115.273C115.405 16.6015 115.513 16.6435 115.597 16.7275C115.693 16.8115 115.741 16.9195 115.741 17.0515V17.7355C116.065 17.3395 116.479 17.0215 116.983 16.7815C117.499 16.5415 118.081 16.4215 118.729 16.4215C119.785 16.4215 120.643 16.7815 121.303 17.5015C121.963 18.2095 122.293 19.2055 122.293 20.4895V25.5115C122.293 25.6315 122.251 25.7395 122.167 25.8355C122.083 25.9195 121.975 25.9615 121.843 25.9615H119.575C119.455 25.9615 119.347 25.9195 119.251 25.8355C119.167 25.7395 119.125 25.6315 119.125 25.5115V20.5975C119.125 20.0335 118.987 19.6015 118.711 19.3015C118.435 18.9895 118.039 18.8335 117.523 18.8335C117.019 18.8335 116.623 18.9895 116.335 19.3015C116.047 19.6015 115.903 20.0335 115.903 20.5975V25.5115C115.903 25.6315 115.861 25.7395 115.777 25.8355C115.693 25.9195 115.585 25.9615 115.453 25.9615H113.203ZM127.128 26.1415C126.492 26.1415 125.91 26.0215 125.382 25.7815C124.866 25.5295 124.458 25.1935 124.158 24.7735C123.87 24.3415 123.726 23.8675 123.726 23.3515C123.726 22.5235 124.062 21.8575 124.734 21.3535C125.418 20.8495 126.354 20.5015 127.542 20.3095L129.792 19.9675V19.7155C129.792 19.2595 129.696 18.9235 129.504 18.7075C129.312 18.4915 128.988 18.3835 128.532 18.3835C128.256 18.3835 128.028 18.4315 127.848 18.5275C127.668 18.6235 127.482 18.7555 127.29 18.9235C127.122 19.0675 126.996 19.1635 126.912 19.2115C126.876 19.3075 126.81 19.3555 126.714 19.3555H124.752C124.632 19.3555 124.53 19.3195 124.446 19.2475C124.374 19.1635 124.344 19.0675 124.356 18.9595C124.368 18.6355 124.524 18.2755 124.824 17.8795C125.136 17.4835 125.604 17.1415 126.228 16.8535C126.864 16.5655 127.644 16.4215 128.568 16.4215C130.044 16.4215 131.136 16.7515 131.844 17.4115C132.552 18.0595 132.906 18.9355 132.906 20.0395V25.5115C132.906 25.6315 132.864 25.7395 132.78 25.8355C132.696 25.9195 132.588 25.9615 132.456 25.9615H130.368C130.248 25.9615 130.14 25.9195 130.044 25.8355C129.96 25.7395 129.918 25.6315 129.918 25.5115V24.8815C129.654 25.2535 129.282 25.5595 128.802 25.7995C128.334 26.0275 127.776 26.1415 127.128 26.1415ZM127.974 24.0895C128.526 24.0895 128.97 23.9095 129.306 23.5495C129.654 23.1895 129.828 22.6615 129.828 21.9655V21.7135L128.298 21.9835C127.218 22.1755 126.678 22.5535 126.678 23.1175C126.678 23.4175 126.804 23.6575 127.056 23.8375C127.308 24.0055 127.614 24.0895 127.974 24.0895Z" fill="#EC5863"/>
<path d="M18.2017 4.10504C19.7066 3.98423 21.0497 5.03392 21.201 6.44877C21.3167 7.53198 20.7 8.51424 19.7304 8.97027L19.8519 10.2543L20.3279 11.2225C20.4364 11.444 20.6503 11.5925 20.8951 11.6257C21.5551 11.7151 22.1912 11.8792 22.7962 12.1082C23.0011 12.186 23.2292 12.1715 23.4192 12.0642L24.0378 11.7167L24.6796 10.7539C24.4819 10.2481 24.525 9.65843 24.8488 9.17248C25.398 8.3488 26.5376 8.14806 27.344 8.75654C28.0389 9.28033 28.2348 10.2579 27.7949 11.004C27.5151 11.4794 27.0474 11.7675 26.5462 11.8392L25.8353 12.9062L25.7572 13.5765C25.7304 13.8069 25.8113 14.0357 25.9734 14.2026C26.5179 14.7662 26.9866 15.4033 27.363 16.0963C27.4893 16.3295 27.7302 16.4785 27.9953 16.494L29.3594 16.5745L31.0367 16.1476C31.2335 15.4297 31.8012 14.835 32.5772 14.6374C33.7503 14.3391 34.9467 15.0615 35.2189 16.2449C35.4647 17.3126 34.8454 18.4107 33.8014 18.7538C32.9865 19.0209 32.1408 18.7809 31.5858 18.2239L29.8987 18.6529L28.8467 19.3101C28.5644 19.4864 28.3987 19.7971 28.4013 20.1295C28.4013 20.1315 28.4013 20.1328 28.4014 20.1347C28.4048 20.7073 28.351 21.2676 28.2472 21.8097C28.1847 22.1325 28.2893 22.4652 28.5306 22.6908L29.4517 23.5515L31.4734 24.5119C31.9342 24.284 32.4923 24.2619 32.9941 24.4997C33.8935 24.9273 34.2565 26.024 33.7661 26.9032C33.3453 27.6557 32.4084 27.9841 31.6043 27.6596C31.0559 27.4382 30.6876 26.9768 30.5621 26.4538L28.5272 25.4875L27.1645 25.301C26.9131 25.2671 26.6605 25.3635 26.5026 25.5603C25.8762 26.3365 25.1182 27.0025 24.2614 27.5243C24.0485 27.6539 23.9203 27.8859 23.9199 28.1346L23.915 29.4878L24.3921 30.9677C25.3184 31.0686 26.1448 31.6967 26.4476 32.6366C26.8551 33.8995 26.165 35.2484 24.9052 35.6629C23.646 36.0773 22.2617 35.389 21.8373 34.136C21.54 33.2588 21.777 32.3354 22.3696 31.7092L21.863 30.1385L21.0335 28.9929C20.9108 28.8225 20.7064 28.7322 20.4975 28.7499C20.2655 28.7697 20.0315 28.7803 19.7948 28.781C18.5088 28.7853 17.2862 28.508 16.1851 28.0091C16.0236 27.9364 15.8382 27.9389 15.6796 28.0167L14.9827 28.3593L14.2882 29.2848C14.4576 29.8012 14.3816 30.3871 14.0314 30.8542C13.4366 31.6466 12.2875 31.7839 11.5162 31.1321C10.8521 30.5709 10.7106 29.584 11.1915 28.8633C11.4977 28.4042 11.98 28.1422 12.4847 28.0986L13.2543 27.0727L13.4328 26.0408C12.728 25.2926 12.1553 24.4197 11.7517 23.4598L10.2722 23.2226L8.74744 23.5332C8.51887 24.4383 7.82707 25.1748 6.89992 25.3754C5.58996 25.6585 4.30704 24.7657 4.03498 23.3807C3.76292 21.9963 4.60352 20.6443 5.91348 20.3612C6.89381 20.1492 7.85842 20.5955 8.39596 21.4143L9.83407 21.121L10.9659 20.4085C11.0399 20.3618 11.0841 20.2806 11.0836 20.1935L11.0836 20.1922C11.0737 18.5695 11.5181 17.0486 12.2979 15.7484C12.3402 15.677 12.3456 15.5893 12.3096 15.5142L11.7861 14.4061L10.3699 13.1152C9.86548 13.1948 9.32943 13.0532 8.92282 12.6823C8.18828 12.012 8.16288 10.8605 8.88911 10.1631C9.52644 9.55183 10.5487 9.52488 11.2215 10.1011C11.657 10.4739 11.8602 11.0105 11.8239 11.5354L13.2401 12.8263L14.3801 13.2432C14.4591 13.2724 14.5472 13.259 14.6152 13.2097C15.3169 12.6964 16.0995 12.2861 16.9407 12.002C17.1716 11.9233 17.3506 11.7395 17.4156 11.505L17.7057 10.4506L17.5758 9.08212C16.6014 8.74967 15.8606 7.91391 15.7504 6.88499C15.5992 5.47014 16.6968 4.2252 18.2017 4.10504Z" fill="#EC5863"/>
<path d="M26.1541 20.1422C26.1327 16.618 23.2448 13.7706 19.7037 13.7824C16.1626 13.7942 13.3094 16.6606 13.3308 20.1847C13.3522 23.7089 16.2402 26.5563 19.7812 26.5445C23.3223 26.5328 26.1755 23.6663 26.1541 20.1422Z" fill="#F58A97"/>
<path d="M19.7694 24.5996C16.5605 24.6102 13.888 22.2731 13.3989 19.212C13.3521 19.5293 13.3288 19.8541 13.3308 20.1847C13.3522 23.709 16.2401 26.5563 19.7812 26.5445C23.3224 26.5328 26.1755 23.6664 26.1541 20.1422C26.1521 19.8115 26.1249 19.4869 26.0742 19.1699C25.6222 22.2341 22.9783 24.5889 19.7694 24.5996Z" fill="#F07281"/>
<path d="M8.15127 30.9387C8.14517 29.9351 7.32277 29.1242 6.31437 29.1276C5.30597 29.1309 4.49345 29.9472 4.49954 30.9508C4.50564 31.9544 5.32805 32.7652 6.33645 32.7619C7.34484 32.7585 8.15737 31.9423 8.15127 30.9387Z" fill="#EB5569"/>
<path d="M31.6021 31.3575C31.5981 30.6947 31.0549 30.1591 30.3888 30.1613C29.7228 30.1635 29.1861 30.7027 29.1901 31.3656C29.1942 32.0284 29.7374 32.564 30.4034 32.5618C31.0695 32.5596 31.6062 32.0204 31.6021 31.3575Z" fill="#EB5569"/>
<path d="M34.0197 9.31185C34.0138 8.33548 33.2137 7.54661 32.2326 7.54987C31.2516 7.55313 30.4611 8.34727 30.467 9.32364C30.4729 10.3 31.2731 11.0889 32.2541 11.0856C33.2352 11.0824 34.0257 10.2882 34.0197 9.31185Z" fill="#EB5569"/>
<path d="M19.6422 22.1225C19.6367 21.2123 18.8907 20.4768 17.9761 20.4798C17.0615 20.4829 16.3245 21.2233 16.33 22.1335C16.3355 23.0438 17.0815 23.7793 17.9961 23.7762C18.9108 23.7732 19.6477 23.0328 19.6422 22.1225Z" fill="#EB5569"/>
<path d="M24.2493 20.7842C24.2455 20.1646 23.7378 19.664 23.1152 19.6661C22.4927 19.6681 21.9911 20.1721 21.9948 20.7917C21.9986 21.4112 22.5063 21.9118 23.1289 21.9098C23.7514 21.9077 24.253 21.4038 24.2493 20.7842Z" fill="#EB5569"/>
<path d="M20.6715 17.2733C20.6683 16.753 20.2419 16.3327 19.7192 16.3344C19.1964 16.3361 18.7752 16.7593 18.7783 17.2796C18.7815 17.7999 19.2078 18.2202 19.7306 18.2185C20.2534 18.2167 20.6746 17.7936 20.6715 17.2733Z" fill="#EB5569"/>
</svg>
